<?xml version="1.0" encoding="utf-8"?>
<!-- Generator: Adobe Illustrator 19.1.0, SVG Export Plug-In . SVG Version: 6.00 Build 0)  -->
<svg version="1.1" id="Lager_1" xmlns="http://www.w3.org/2000/svg" xmlns:xlink="http://www.w3.org/1999/xlink" x="0px" y="0px"
	 viewBox="-89 345.1 383 125" style="enable-background:new -89 345.1 383 125;" xml:space="preserve">
<style type="text/css">
	.st0{fill:#1D1D1B;}
</style>
<g>
	<path class="st0" d="M-2,409c1.2,0,2.3,0.7,2.3,2.1c0,4.3-1.4,16.6-1.2,31.6c5.5-13.4,9-25.3,10.2-29.7c0.2-3,1-4.6,3.3-4.6
		c1.2,0,2.3,0.7,2.3,2.1c0,2.4-2.4,24.3-2.4,32.8c0,3.5,0.3,5.8,1.1,5.8c1.5,0,3.2-4,5.6-8.9c0.4-0.7,0.8-1.1,1.1-1.1
		c0.2,0,0.4,0.2,0.4,0.6c0,0.2-0.1,0.7-0.2,1.1c-1.9,4.6-4.2,12.5-9.2,12.5c-3.2,0-4.2-5.9-4.2-13.8c0-5.1,0.5-11.2,1.1-16.7
		c-2.2,7.7-5.5,18-8.9,26.9c-0.4,1.2-1.8,1.8-3.1,1.8c-1.1,0-2.1-0.4-2.2-1.5c-0.2-2.7-0.4-7.2-0.4-12.6c0-4.8,0.1-10.2,0.5-15.5
		c-4.6,16.2-8.4,27.7-9.5,30c-0.3,0.6-0.7,0.9-1.3,0.9c-1.1,0-2.3-1.1-2.3-2.4c0-2,7.6-13.9,13.9-37.5c0,0,0.1-0.6,0.2-1.5
		C-4.7,409.8-3.4,409-2,409L-2,409z"/>
	<path class="st0" d="M32,436.3l2-8.9c0-1.1-0.2-2.4-1.7-2.4c-4.2,0-7.9,14.5-7.9,21c0,1.9,0.3,3,1.1,3
		C27.7,449,30.5,443.2,32,436.3L32,436.3z M35.4,448.1c0,0.9,0.3,1.5,0.9,1.5c1.3,0,3.2-3.3,6.1-9.3c0.3-0.7,0.8-1.1,1.1-1.1
		c0.2,0,0.4,0.2,0.4,0.6c0,0.2-0.1,0.6-0.2,1.1c-0.9,2.2-4.8,12.3-9.5,12.3c-1.9,0-4.2-1.1-4.2-5.7c0-0.3,0-0.7,0.1-1.2
		c-2,4.2-4.4,6.9-6.4,6.9c-3.3,0-4.8-3.6-4.8-8.4c0-9.4,5.5-23.4,12.6-23.4c2.5,0,4,2.7,4.2,4.6h0.4c1.5,0,3.4,1.3,3.4,3.6
		c0,0.3,0,0.6-0.1,0.9C37.6,438.4,35.4,445.1,35.4,448.1L35.4,448.1z"/>
	<path class="st0" d="M45.6,451.4c-0.2,1.4-1.2,2-2.3,2c-1.2,0-2.4-0.9-2.4-2.7c0-4.3,2.1-16.5,4.9-26.1c0.3-1.1,1.3-1.5,2.4-1.5
		c1.4,0,3,1,3,2.7c0,1.1-0.7,2.6-1.1,3.7c2.2-4.8,5-8.2,8-8.2c2.3,0,3.2,1.4,3.2,4c0,3.5-3,9.2-3,11.4c0,0.9,0.5,1.4,1.4,1.4
		c2,0,4.6-4.5,5.6-6.9c0.4-0.9,0.8-1.5,1.2-1.5c0.7,0,0.4,1.3,0.3,1.7c-0.9,3.5-4.5,9.1-8.8,9.1c-2.5,0-4.8-1.1-4.8-4.8
		c0-3.4,2.7-7.6,2.7-9.5c0-0.4-0.2-0.7-0.6-0.7c-2.1,0-7.2,8.9-8.8,19.3L45.6,451.4L45.6,451.4z"/>
	<path class="st0" d="M75.4,425.8c-2.5,0-5.4,6.4-7.4,14.6c0.6-0.4,1.2-0.7,1.9-0.7c0.8,0,1.5,0.4,2.2,1.3c2.9-2.2,5.1-8.2,5.1-12
		C77.2,427.2,76.6,425.8,75.4,425.8L75.4,425.8z M64.2,453.1c-1.3,0-2.8-1.1-2.8-2.5c0-3,4.2-26.1,8.3-40.1c0.3-1.1,1.2-1.4,2.2-1.4
		c1.5,0,3.3,1.1,3.3,2.5c0,0.2,0,0.3-0.1,0.5c-1.4,4.3-3,10.2-4.4,16c2-3.9,4.3-6.7,7-6.7c3.2,0,4.6,2.7,4.6,6.1
		c0,5.7-3.8,13.6-9.4,15.5c2.1,5.5,2.5,7.1,4.3,7.1c2.8,0,5.2-4.7,7.7-9.8c0.3-0.7,0.8-1.1,1.2-1.1c0.2,0,0.3,0.1,0.3,0.4
		c0,0.2-0.1,0.6-0.2,1.1c-2,5.1-5.3,12.6-10.5,12.6c-4.5,0-5.6-3.3-8.3-10.1l-0.1,0.1c-0.8,3.9-1.4,6.9-1.5,8.4
		C65.6,452.8,65,453.1,64.2,453.1L64.2,453.1z"/>
	<path class="st0" d="M91.2,440.5c3.7,0,8.9-9.8,8.9-14.6c0-1-0.1-2-1.1-2c-3.5,0-7.6,9.2-8.4,16.6C90.9,440.5,91,440.5,91.2,440.5
		L91.2,440.5z M103.9,428.2c0,5.9-4.5,14.3-11,14.3c-0.7,0-1.5-0.1-2.4-0.4c0,2.7,0.2,7.4,4.1,7.4c5.9,0,9-6.7,10.7-9.2
		c0.4-0.6,0.7-0.9,1-0.9c0.2,0,0.4,0.2,0.4,0.6c0,0.2-0.1,0.6-0.2,0.9c-2.8,6.9-7.1,12.4-14.2,12.4c-5.3,0-7.5-4.8-7.5-10.7
		c0-9.2,5.3-21.2,11.8-21.2c1.4,0,2.8,0.4,3.5,1.1C102.8,422.8,103.9,425.1,103.9,428.2L103.9,428.2z"/>
	<path class="st0" d="M109.3,421.5c0.7-2.8,1.5-5.5,2.3-8c0.3-1.1,1.4-1.5,2.5-1.5c1.5,0,3.2,1,3.2,3.1c0,1.5-0.9,4.3-1.6,6.8
		c3,0.2,5.9,0.4,5.9,1.3c0,0.9-2.3,1.5-6.8,2c-2.4,8.2-5.3,17.8-5.3,22.2c0,1.6,0.4,2.6,1.3,2.6c2.4,0,5.6-6.8,7.3-9.6
		c0.4-0.7,0.7-1.1,1.1-1.1c0.2,0,0.4,0.2,0.4,0.7c0,0.2-0.1,0.6-0.2,1.1c-0.9,2.2-5.1,12.3-10.3,12.3c-2.4,0-4.5-1.7-4.5-6.4
		c0-4.1,1.5-12.8,3.7-21.7l-2-0.2c-0.7-0.1-1.1-0.9-1.1-1.7c0-0.9,0.4-1.9,1.1-1.9C107.3,421.4,108.3,421.4,109.3,421.5L109.3,421.5
		z"/>
	<path class="st0" d="M121.8,448.8c0.7,0,1.5,0.4,2.4,1.4c4.2-0.7,8.5-14.2,8.5-20.9c0-2.2-0.5-3.5-1.6-3.5c-2.4,0-5.1,6.1-7.2,14
		L121.8,448.8L121.8,448.8z M121,452.1c-1.6,7.4-2.9,13.9-3.1,16.1c-0.1,1.5-1.2,1.9-2.3,1.9c-1.3,0-2.7-0.7-2.7-2.7
		s6.3-33.3,8.7-42.1c0.4-1.5,1.7-2.2,2.8-2.2c1.4,0,2.7,0.9,2.7,2.4c0,0.2,0,0.4-0.5,2.5c1.8-3.9,4-6.6,6.7-6.6
		c3.8,0,5.3,3.7,5.3,8.1c0,7.3-3.9,17.5-9,21.7c5.6-1.2,9-4.8,12-10.9c0.3-0.7,0.7-1,1-1c0.2,0,0.4,0.2,0.4,0.7
		c0,0.3-0.1,0.6-0.2,0.9c-3.2,7.8-7.3,12.6-16.4,12.6C123.6,453.5,121.9,452.9,121,452.1L121,452.1z"/>
	<path class="st0" d="M147.6,436.2c5-4.1,8.5-17.5,8.5-24.7c0-1-0.1-1.9-0.2-2.7C153.7,409.5,149.5,424.9,147.6,436.2L147.6,436.2z
		 M156.8,407.6c1.6,0.9,2.7,2.1,2.7,6.3c0,8.5-4.7,24.6-12.2,23.8c-0.5,3.2-0.8,5.9-0.8,7.9c0,2.7,0.7,3.9,2.5,3.9
		c3.3,0,7.1-4.8,9.3-9.2c0.3-0.7,0.7-0.9,1-0.9c0.2,0,0.4,0.2,0.4,0.7c0,0.2-0.1,0.5-0.2,0.9c-1.9,4.8-7.2,12.5-12.6,12.5
		c-4.2,0-5.6-3.8-5.6-9.4c0-3.5,0.6-7.8,1.4-12.3c2.4-12.4,6-25.4,11.7-25.4C155.5,406.4,156.4,407,156.8,407.6L156.8,407.6z"/>
	<path class="st0" d="M171.1,436.3l2-8.9c0-1.1-0.2-2.4-1.7-2.4c-4.1,0-7.9,14.5-7.9,21c0,1.9,0.3,3,1.1,3
		C166.9,449,169.6,443.2,171.1,436.3L171.1,436.3z M174.6,448.1c0,0.9,0.3,1.5,0.9,1.5c1.3,0,3.2-3.3,6.1-9.3
		c0.3-0.7,0.8-1.1,1.1-1.1c0.2,0,0.4,0.2,0.4,0.6c0,0.2-0.1,0.6-0.2,1.1c-0.9,2.2-4.8,12.3-9.5,12.3c-1.9,0-4.2-1.1-4.2-5.7
		c0-0.3,0-0.7,0.1-1.2c-2,4.2-4.4,6.9-6.4,6.9c-3.3,0-4.8-3.6-4.8-8.4c0-9.4,5.5-23.4,12.6-23.4c2.5,0,4,2.7,4.1,4.6h0.4
		c1.5,0,3.4,1.3,3.4,3.6c0,0.3,0,0.6-0.1,0.9C176.7,438.4,174.6,445.1,174.6,448.1L174.6,448.1z"/>
	<path class="st0" d="M195.6,423.9c-3.5,0-8.1,11.7-8.1,19.4c0,4.2,1.2,6.7,4.5,6.7c4.9,0,9.4-6.1,11.1-9.7c0.3-0.7,0.7-0.9,1-0.9
		c0.2,0,0.4,0.2,0.4,0.6c0,0.2-0.1,0.6-0.2,0.9c-2.2,5.3-7.2,12.6-14.3,12.6c-6.2,0-8.6-5.1-8.6-11.4c0-9.2,5.3-20.7,12-20.7
		c1.4,0,2.6,0.6,3.3,1.2c2.8,0.5,3.8,3.7,3.8,7.1c0,4.5-1.2,8.3-4.6,8.3c-1.4,0-2.8-0.8-2.8-1.9c0-2.5,3.9-4.6,3.9-9.7
		C197.1,425,196.2,423.9,195.6,423.9L195.6,423.9z"/>
	<path class="st0" d="M209.4,440.5c3.7,0,8.9-9.8,8.9-14.6c0-1-0.1-2-1.1-2c-3.5,0-7.6,9.2-8.4,16.6
		C209.1,440.5,209.2,440.5,209.4,440.5L209.4,440.5z M222.1,428.2c0,5.9-4.5,14.3-11,14.3c-0.7,0-1.5-0.1-2.4-0.4
		c0,2.7,0.2,7.4,4.1,7.4c5.9,0,9-6.7,10.7-9.2c0.4-0.6,0.7-0.9,1-0.9c0.2,0,0.4,0.2,0.4,0.6c0,0.2-0.1,0.6-0.2,0.9
		c-2.8,6.9-7.1,12.4-14.2,12.4c-5.3,0-7.5-4.8-7.5-10.7c0-9.2,5.3-21.2,11.8-21.2c1.4,0,2.8,0.4,3.5,1.1
		C221,422.8,222.1,425.1,222.1,428.2L222.1,428.2z"/>
	<path class="st0" d="M-56.5,401.8c-0.8,0-16.5,0-17.2,0c-7.9,0-14.4-6.1-14.4-13.8c0-17,0-11.4,0-28.5c0-7.9,6.6-14,15.5-14
		c0.7,0,14.8,0,15.5,0c8.6,0,15.1,6.3,15.1,13.4c0,0.6,0,6.2,0,6.2l-12-0.1c0,0,0-1.5,0-2.7c0-2.5-2.4-4.9-5.2-4.9
		c-0.7,0-10.9,0-11.6,0c-3,0-5.3,2.4-5.3,5.4c0,4.5,0,14.7,0,22.1c0,2.9,2.6,5.2,5.4,5.2c0.8,0,10.7,0,11.4,0c2.8,0,5.4-2.2,5.4-5.3
		c0-1.1,0-1.3,0-2.3c0.1,0,11.9-0.1,11.9-0.1c0,0.5,0,3.4,0,5.6C-42.1,395.5-47.8,401.8-56.5,401.8"/>
	<path class="st0" d="M-2,361.8c0-1.8-2.3-4.5-5.3-4.5c-0.7,0-16.9,0-16.9,0v32.6c0,0,14.8,0,17,0c2.4,0,5.2-2.2,5.2-4.6
		C-2,368.4-2,378.9-2,361.8L-2,361.8z M-4,401.8c-0.7,0-32.2,0-32.2,0v-56.3c0,0,28.8,0,31.9,0c8.2,0,14.3,6.4,14.2,12.7
		c-0.1,10.2-0.1,25.1,0,31C10,395.4,3.3,401.8-4,401.8"/>
	<path class="st0" d="M50.4,362.5c0-2.7-2.4-5.1-5.3-5.1c-0.7,0-10.9,0-11.6,0c-2.8,0-5.3,2.2-5.3,5.4c0,17.1,0,17.2,0,22.2
		c0,2.5,2.4,5.1,5.6,5.1c0.8,0,10.5,0,11.3,0c2.6,0,5.3-2.1,5.3-5.3C50.4,367.7,50.4,376,50.4,362.5L50.4,362.5z M46.9,401.8
		c-0.8,0-14.3,0-15,0c-9.9,0-15.7-6.2-15.7-13.7c0-9.5,0-11.6,0-28.7c0-8.4,6.5-13.9,15.5-13.9c0.7,0,15,0,15.7,0
		c8.4,0,14.9,5.9,14.9,14.1c0,17,0,11,0,28C62.3,396.3,55.4,401.8,46.9,401.8"/>
	<polyline class="st0" points="102.7,401.8 80.6,369.6 80.6,401.8 68.6,401.8 68.6,345.5 80.6,345.5 102.7,379.4 102.7,345.5 
		114.7,345.5 114.7,401.8 102.7,401.8 	"/>
	<path class="st0" d="M125.6,401.8c-3.9,0-6.3-2.4-6.3-5.9c0-3.4,2.4-6.3,6.3-6.3c4.1,0,6.6,2.7,6.6,6.1
		C132.2,399.2,129.5,401.8,125.6,401.8"/>
	<path class="st0" d="M166.1,401.8c-0.8,0-16.5,0-17.2,0c-7.9,0-14.4-6.1-14.4-13.8c0-17,0-11.4,0-28.5c0-7.9,6.6-14,15.5-14
		c0.7,0,14.8,0,15.5,0c8.6,0,15.1,6.3,15.1,13.4c0,0.6,0,6.2,0,6.2l-12-0.1c0,0,0-1.5,0-2.7c0-2.5-2.4-4.9-5.2-4.9
		c-0.7,0-10.9,0-11.6,0c-3,0-5.3,2.4-5.3,5.4c0,4.5,0,14.7,0,22.1c0,2.9,2.6,5.2,5.4,5.2c0.8,0,10.7,0,11.4,0c2.8,0,5.4-2.2,5.4-5.3
		c0-1.1,0-1.3,0-2.3c0.1,0,11.9-0.1,11.9-0.1c0,0.5,0,3.4,0,5.6C180.5,395.5,174.8,401.8,166.1,401.8"/>
	<path class="st0" d="M220.5,362.5c0-2.7-2.4-5.1-5.3-5.1c-0.7,0-10.9,0-11.6,0c-2.8,0-5.3,2.2-5.3,5.4c0,17.1,0,17.2,0,22.2
		c0,2.5,2.4,5.1,5.6,5.1c0.8,0,10.5,0,11.3,0c2.6,0,5.3-2.1,5.3-5.3C220.5,367.7,220.5,376,220.5,362.5L220.5,362.5z M217.1,401.8
		c-0.8,0-14.3,0-15,0c-9.9,0-15.7-6.2-15.7-13.7c0-9.5,0-11.6,0-28.7c0-8.4,6.5-13.9,15.5-13.9c0.7,0,15,0,15.7,0
		c8.4,0,14.9,5.9,14.9,14.1c0,17,0,11,0,28C232.5,396.3,225.6,401.8,217.1,401.8"/>
	<polyline class="st0" points="282,401.8 282,369.9 266.4,395.5 250.8,370 250.8,401.8 238.8,401.8 238.8,345.5 250.8,345.5 
		266.5,372.1 282,345.5 294,345.5 294,401.8 282,401.8 	"/>
</g>
</svg>
