<?xml version="1.0" encoding="utf-8"?>
<!-- Generator: Adobe Illustrator 19.1.0, SVG Export Plug-In . SVG Version: 6.00 Build 0)  -->
<svg version="1.1" id="Lager_1" xmlns="http://www.w3.org/2000/svg" xmlns:xlink="http://www.w3.org/1999/xlink" x="0px" y="0px"
	 viewBox="0 0 534.2 94.5" style="enable-background:new 0 0 534.2 94.5;" xml:space="preserve">
<g id="XMLID_221_">
	<path id="XMLID_239_" d="M105.8,50.2c-0.1-0.4-0.1-1-0.1-1.9c0-5.5,1.8-9.8,5.5-12.9c3.7-3.1,7.7-4.6,12.2-4.6
		c5.9,0,9.9,2.2,12.2,6.7L105.8,50.2z M148.5,42.4c-0.1-6.5-2.5-11.8-7.4-15.9c-4.9-4.1-11-6.1-18.3-6.1c-4.6,0-9.1,1-13.2,3.1
		c-4.2,2.1-7.7,5.3-10.5,9.6c-2.8,4.3-4.2,9.4-4.2,15.1c0,8.3,2.7,15,8.2,20c5.5,5.1,12,7.6,19.6,7.6c8.7,0,16.2-3.3,22.6-9.9
		l-6.7-7.4c-3.9,4.7-8.9,7.1-14.9,7.1c-6,0-10.8-2.2-14.3-6.5l39.2-16.5L148.5,42.4z"/>
	<path id="XMLID_238_" d="M81.8,23.7c-3.1,2.2-5.6,4.9-7.4,8.3V21.1H63.1v53.8h11.3v-23c0-6.1,1.4-11,4.2-14.7
		c2.8-3.6,7-5.5,12.6-5.5h0.6l-0.1-11.4C88.3,20.4,85,21.5,81.8,23.7"/>
	<path id="XMLID_237_" d="M189.1,47.5c-1.8-1.2-3.5-2.2-5.1-2.8c-1.6-0.7-3.2-1.3-4.9-1.8c-1.7-0.5-3.6-1.1-5.8-1.6
		c-2.2-0.5-3.9-1.1-5.1-1.7c-1.8-0.8-2.6-2.1-2.6-3.8c0-2,0.8-3.4,2.5-4.4c1.7-1,3.9-1.5,6.6-1.5c5.1,0,9.9,1.4,14.3,4.3l4.2-8.4
		c-5.5-3.6-11.4-5.5-17.6-5.5c-6.2,0-11.2,1.5-15.1,4.5c-3.9,3-5.8,7-5.8,12c0,7.1,5.6,12.1,16.8,15.2c0.3,0.1,0.7,0.2,1.2,0.4
		c7.1,2.2,10.7,4.6,10.7,7.3c0,1.8-0.7,3.3-2.2,4.5c-1.5,1.2-3.5,1.8-6.1,1.8c-5.9,0-11.9-2.4-18.2-7.1l-5.5,8.8
		c3.2,2.6,7,4.5,11.2,6c4.2,1.4,8.3,2.1,12.2,2.1c5.8,0,10.5-1.5,14.3-4.6c3.7-3.1,5.6-7.2,5.6-12.3
		C194.5,53.7,192.7,49.9,189.1,47.5"/>
	<path id="XMLID_234_" d="M39.3,39.6c-2.4,2.5-6.9,3.8-13.5,3.8H11.9V15.1h12.1c6.5,0,11.2,1,14.3,3c3,2,4.5,5.5,4.5,10.4
		C42.9,33.3,41.7,37,39.3,39.6 M47.7,10.4C42.8,6.3,35,4.2,24.3,4.2H0v70.7h11.9V54.2h12.5c10.4,0,18.1-2,23.1-6
		c5-4,7.5-10.2,7.5-18.8C55.1,20.9,52.6,14.5,47.7,10.4"/>
	<path id="XMLID_233_" d="M221,65.9c-2.4,0-4.3-0.8-5.7-2.3c-1.3-1.5-2-3.6-2-6.1V30.2h14.2v-9.1h-14.2V4.2H202v53
		c0,5.7,1.7,10.2,5.1,13.5c3.4,3.3,7.5,5,12.3,5c4.8,0,9.2-1.8,13.2-5.4l-4.6-8C225.8,64.7,223.4,65.9,221,65.9"/>
	<path id="XMLID_230_" d="M272.8,60.8c-3.1,3.3-6.9,4.9-11.3,4.9c-4.4,0-8.3-1.6-11.6-4.9c-3.3-3.2-5-7.4-5-12.6s1.6-9.5,4.9-12.9
		c3.2-3.4,7.1-5.2,11.6-5.2c4.5,0,8.3,1.7,11.4,5.2c3.1,3.4,4.6,7.7,4.6,12.8C277.5,53.3,275.9,57.5,272.8,60.8 M277.3,30.4
		c-4.6-6.7-10.4-10.1-17.5-10.1c-7.1,0-13.2,2.5-18.4,7.5c-5.2,5-7.8,11.7-7.8,20c0,8.4,2.5,15.1,7.6,20.2c5.1,5.1,11,7.7,17.8,7.7
		c3.4,0,6.7-0.8,10.1-2.5c3.3-1.7,6.1-4,8.2-7.1v8.8h11.3V21.1h-11.3V30.4z"/>
	<path id="XMLID_227_" d="M456.4,60.7c-3.2,3.3-7.3,4.9-12.2,4.9c-4.9,0-9-1.6-12.2-4.9c-3.2-3.3-4.8-7.5-4.8-12.7s1.6-9.4,4.8-12.7
		c3.2-3.3,7.3-4.9,12.2-4.9c4.9,0,9,1.6,12.2,4.9c3.2,3.3,4.8,7.5,4.8,12.7S459.6,57.4,456.4,60.7 M444.2,20.3
		c-8.1,0-14.8,2.7-20.2,8c-5.4,5.4-8.1,11.9-8.1,19.7s2.7,14.3,8.1,19.7c5.4,5.4,12.1,8,20.2,8c8.1,0,14.8-2.7,20.2-8
		c5.4-5.4,8.1-11.9,8.1-19.7s-2.7-14.3-8.1-19.7C459.1,23,452.3,20.3,444.2,20.3"/>
	<path id="XMLID_224_" d="M517.9,60.7c-3.3,3.2-7.2,4.9-11.6,4.9c-4.4,0-8.2-1.6-11.3-4.9c-3.1-3.3-4.6-7.5-4.6-12.6
		c0-5.1,1.5-9.4,4.6-12.8c3.1-3.4,6.9-5.1,11.4-5.1c4.5,0,8.4,1.7,11.6,5.1c3.2,3.4,4.9,7.7,4.9,12.8
		C522.9,53.3,521.2,57.5,517.9,60.7 M526.5,27.8c-5.1-5-11.3-7.5-18.5-7.5c-7.2,0-13,3.4-17.5,10.2v-9.4h-11.3v73.4h11.3V66.8
		c5.4,5.9,11.5,8.9,18.2,8.9c6.8,0,12.7-2.6,17.8-7.8c5.1-5.2,7.6-11.9,7.6-20.2S531.6,32.8,526.5,27.8"/>
	<path id="XMLID_223_" d="M389.6,20.3c-3.8,0-7.3,0.9-10.6,2.8c-3.3,1.9-5.7,4.5-7.3,7.8V0h-11.3v74.9h11.3V45.8
		c0-5,1.4-8.8,4.3-11.4c2.9-2.6,6.3-3.9,10.2-3.9c8.2,0,12.3,5,12.3,14.9v29.5h11.3v-33c0-7-1.9-12.4-5.6-16.1
		C400.5,22.2,395.6,20.3,389.6,20.3"/>
	<path id="XMLID_222_" d="M346.8,40.9c-3.7-3.2-9.1-5.6-16.4-7.4c-7.2-1.8-12-3.4-14.2-4.9c-2.2-1.5-3.3-3.7-3.3-6.6
		c0-2.9,1.1-5,3.3-6.4c2.2-1.4,5.1-2.1,8.5-2.1c3.5,0,7,0.6,10.6,1.8c3.6,1.2,6.4,2.8,8.5,4.6l6.4-9c-3.2-2.7-7.1-4.8-11.5-6.3
		c-4.4-1.5-8.9-2.2-13.4-2.2c-7,0-12.9,1.8-17.6,5.3c-4.8,3.5-7.1,8.6-7.1,15.1c0,6.5,2.1,11.4,6.3,14.6c2.1,1.7,4.5,3,7.2,4.1
		c2.7,1,6.6,2.2,11.8,3.4c5.2,1.2,8.8,2.6,11,4.1c2.1,1.5,3.2,3.6,3.2,6.4s-1.1,4.9-3.4,6.6c-2.3,1.7-5.3,2.5-9.1,2.5
		c-7.7,0-15.1-3.1-22.2-9.3l-7.5,9c8.6,7.6,18.4,11.4,29.4,11.4c7.5,0,13.6-1.9,18.3-5.8c4.6-3.8,7-8.8,7-15S350.5,44.1,346.8,40.9"
		/>
</g>
</svg>
