<?xml version="1.0" encoding="utf-8"?>
<!-- Generator: Adobe Illustrator 19.1.0, SVG Export Plug-In . SVG Version: 6.00 Build 0)  -->
<svg version="1.1" id="Lager_1" xmlns="http://www.w3.org/2000/svg" xmlns:xlink="http://www.w3.org/1999/xlink" x="0px" y="0px"
	 viewBox="0 0 477 96.2" style="enable-background:new 0 0 477 96.2;" xml:space="preserve">
<style type="text/css">
	.st0{fill:#010202;}
	.st1{fill:#FFFFFF;}
</style>
<g>
	<path class="st0" d="M15,0h131.5c8.3,0,15.1,6.7,15.1,15.1v50.2c0,8.3-6.7,15.1-15.1,15.1H99.4l6.5,15.9L77.4,80.3H15.1
		C6.7,80.3,0,73.6,0,65.3V15.1C-0.1,6.8,6.7,0,15,0z"/>
	<path class="st1" d="M8.1,13.7c0.9-1.3,2.3-1.9,4.2-2c3.4-0.3,5.3,1.3,5.7,4.8c2,13.8,4.3,25.5,6.7,35.1l14.5-27.5
		c1.3-2.5,3-3.8,5-4c2.9-0.2,4.7,1.7,5.4,5.5c1.7,8.8,3.8,16.3,6.3,22.6c1.7-16.8,4.6-28.9,8.7-36.3c1-1.8,2.4-2.8,4.4-2.9
		c1.5-0.1,2.9,0.3,4.2,1.3s1.9,2.2,2,3.8c0.1,1.2-0.1,2.2-0.7,3.2C71.8,21.9,69.7,29.9,68,41c-1.7,10.8-2.2,19.2-1.8,25.2
		c0.1,1.7-0.1,3.1-0.8,4.4c-0.8,1.5-2,2.2-3.5,2.4c-1.7,0.1-3.5-0.7-5.2-2.4c-6.1-6.3-11-15.7-14.6-28.1c-4.3,8.5-7.5,14.8-9.5,19
		c-3.9,7.5-7.2,11.3-10,11.5c-1.8,0.1-3.3-1.4-4.6-4.6c-3.4-8.7-7-25.4-10.9-50.1C6.8,16.4,7.1,14.9,8.1,13.7z"/>
	<path class="st1" d="M150.1,24c-2.4-4.2-5.9-6.7-10.6-7.7c-1.3-0.3-2.4-0.4-3.6-0.4c-6.3,0-11.5,3.3-15.5,9.9
		c-3.4,5.6-5.2,11.8-5.2,18.6c0,5.1,1.1,9.4,3.2,13.1c2.4,4.2,5.9,6.7,10.6,7.7c1.3,0.3,2.4,0.4,3.6,0.4c6.4,0,11.6-3.3,15.5-9.9
		c3.4-5.7,5.2-11.9,5.2-18.7C153.3,31.9,152.2,27.6,150.1,24L150.1,24z M141.8,42.3c-0.9,4.4-2.6,7.6-5,9.8
		c-1.9,1.7-3.7,2.4-5.4,2.1c-1.6-0.3-2.9-1.7-3.9-4.3c-0.8-2-1.2-4.1-1.2-6c0-1.7,0.1-3.3,0.5-4.8c0.6-2.7,1.7-5.4,3.5-7.9
		c2.2-3.2,4.5-4.6,6.9-4.1c1.6,0.3,2.9,1.7,3.9,4.3c0.8,2,1.2,4.1,1.2,6C142.2,39.2,142,40.8,141.8,42.3L141.8,42.3z"/>
	<path class="st1" d="M108.7,24c-2.4-4.2-5.9-6.7-10.6-7.7c-1.3-0.3-2.4-0.4-3.6-0.4C88.2,16,83,19.3,79,25.9
		c-3.4,5.6-5.2,11.8-5.2,18.6c0,5.1,1.1,9.4,3.2,13.1c2.4,4.2,5.9,6.7,10.6,7.7c1.3,0.3,2.4,0.4,3.6,0.4c6.4,0,11.6-3.3,15.5-9.9
		c3.4-5.7,5.2-11.9,5.2-18.7C111.8,31.9,110.8,27.6,108.7,24L108.7,24z M100.3,42.3c-0.9,4.4-2.6,7.6-5,9.8
		c-1.9,1.7-3.7,2.4-5.4,2.1c-1.6-0.3-2.9-1.7-3.9-4.3c-0.8-2-1.2-4.1-1.2-6c0-1.7,0.1-3.3,0.5-4.8c0.6-2.7,1.7-5.4,3.5-7.9
		c2.2-3.2,4.5-4.6,6.9-4.1c1.6,0.3,2.9,1.7,3.9,4.3c0.8,2,1.2,4.1,1.2,6C100.8,39.2,100.7,40.8,100.3,42.3L100.3,42.3z"/>
	<g>
		<g>
			<path class="st0" d="M178.3,23.5c-4.4,4.4-6.6,9.9-6.6,16.6c0,7.2,2.2,13.1,6.5,17.5c4.4,4.4,10,6.7,17.1,6.7
				c2,0,4.4-0.3,6.9-1.1V52.5c-2.3,0.7-4.3,1-6,1c-3.5,0-6.3-1.2-8.4-3.5c-2.1-2.4-3.2-5.5-3.2-9.6c0-3.8,1.1-6.9,3.1-9.2
				c2.1-2.4,4.7-3.6,7.9-3.6c2,0,4.2,0.3,6.6,1V17.8c-2.2-0.6-4.6-0.9-7.2-0.9C188.3,16.9,182.7,19.1,178.3,23.5z M224.1,16.9
				c-6.1,0-10.8,2-14.3,6.1s-5.1,9.7-5.1,17c0,7.9,1.7,13.9,5.1,18c3.4,4.2,8.3,6.3,14.8,6.3c6.3,0,11.1-2.1,14.5-6.3
				c3.4-4.2,5.1-10,5.1-17.6s-1.7-13.3-5.2-17.4C235.6,19,230.6,16.9,224.1,16.9z M229.4,51.3c-1.2,1.8-3,2.8-5.2,2.8
				c-2.1,0-3.7-0.9-4.8-2.8c-1.1-1.8-1.7-5.5-1.7-11.2c0-8.7,2.2-12.9,6.6-12.9c4.6,0,7,4.4,7,13.1
				C231.2,45.7,230.5,49.4,229.4,51.3z M276.9,18.2l-2.4,10.1c-0.6,2.6-1.2,5.2-1.7,7.9l-1.3,7c-1.3-7-3-15.3-5.2-25H251l-5.7,45
				h11.5l3.1-31l7.9,31h8.2l7.5-30.9l3.2,30.9h12l-6.1-45L276.9,18.2L276.9,18.2z M331.9,18.2l-2.4,10.1c-0.6,2.6-1.2,5.2-1.7,7.9
				l-1.3,7c-1.3-7-3-15.3-5.2-25H306l-5.7,45h11.5l3.1-31l7.9,31h8.2l7.5-30.9l3.2,30.9h12l-6.1-45H331.9z M369.3,45.4H380v-9.3
				h-10.8v-8.3h12.4v-9.6h-24.6v45h24.6v-9.6h-12.5V45.4z M416,38.2c1.3-2,1.9-4.2,1.9-6.3c0-4.2-1.7-7.6-5-10
				c-3.3-2.4-7.9-3.7-13.5-3.7h-14.1v45h12.2V42.7h0.2l9.8,20.5h12.8l-9.7-20.3C412.9,41.8,414.7,40.3,416,38.2z M397.3,37.5V26.8
				c2.9,0.1,5,0.5,6.2,1.5c1.3,0.9,1.8,2.4,1.8,4.5C405.4,35.9,402.7,37.5,397.3,37.5z M425,23.5c-4.4,4.4-6.6,9.9-6.6,16.6
				c0,7.2,2.2,13.1,6.5,17.5c4.4,4.4,10,6.7,17.1,6.7c2,0,4.4-0.3,6.9-1.1V52.5c-2.3,0.7-4.3,1-6,1c-3.5,0-6.3-1.2-8.4-3.5
				c-2.1-2.4-3.2-5.5-3.2-9.6c0-3.8,1.1-6.9,3.1-9.2c2.1-2.4,4.7-3.6,7.9-3.6c2,0,4.2,0.3,6.6,1V17.8c-2.2-0.6-4.6-0.9-7.2-0.9
				C435.1,16.9,429.5,19.1,425,23.5z M464.5,53.5v-8.2h10.8V36h-10.8v-8.3h12.5v-9.6h-24.6v45H477v-9.6L464.5,53.5L464.5,53.5z"/>
		</g>
	</g>
</g>
</svg>
