<?xml version="1.0" encoding="utf-8"?>
<!-- Generator: Adobe Illustrator 19.1.0, SVG Export Plug-In . SVG Version: 6.00 Build 0)  -->
<svg version="1.1" id="Lager_1" xmlns="http://www.w3.org/2000/svg" xmlns:xlink="http://www.w3.org/1999/xlink" x="0px" y="0px"
	 viewBox="0 0 497.2 142.7" style="enable-background:new 0 0 497.2 142.7;" xml:space="preserve">
<style type="text/css">
	.st0{fill:#F49522;}
</style>
<g>
	<path d="M58,82.6c-1,0.9-2.4,0.9-3.5,0.3c-4.9-4.1-5.7-5.9-8.4-9.8c-8.1,8.2-13.7,10.7-24.2,10.7C9.6,83.8,0,76.2,0,60.9
		c0-11.9,6.4-20,15.6-24c7.9-3.5,19.1-4.1,27.6-5.1V30c0-3.5,0.3-7.6-1.8-10.6c-1.8-2.7-5.2-3.8-8.2-3.8c-5.6,0-10.6,2.9-11.8,8.8
		c-0.3,1.3-1.2,2.6-2.5,2.7L4.6,25.5c-1.2-0.3-2.5-1.2-2.2-3.1C5.7,5.2,21.3,0,35.2,0c7.1,0,16.5,1.9,22.1,7.3
		c7.1,6.7,6.4,15.5,6.4,25.2v22.8c0,6.9,2.9,9.9,5.5,13.6c0.9,1.3,1.1,2.9,0,3.9C66.3,75.4,60.9,80,58,82.6L58,82.6z M43.2,46.7
		v-3.2c-10.6,0-21.8,2.3-21.8,14.7c0,6.3,3.3,10.6,8.9,10.6c4.1,0,7.8-2.5,10.1-6.6C43.3,57.1,43.2,52.4,43.2,46.7"/>
	<g>
		<path class="st0" d="M181.1,133.4"/>
	</g>
	<path d="M273.8,15.6V4.8c0-1.6,1.2-2.7,2.7-2.7h48.2c1.6,0,2.8,1.1,2.8,2.7v9.2c0,1.5-1.3,3.6-3.6,6.8l-25,35.6
		c9.3-0.2,19.1,1.2,27.5,5.9c1.9,1.1,2.4,2.6,2.6,4.2V78c0,1.6-1.7,3.4-3.5,2.5c-14.8-7.8-34.5-8.6-50.9,0.1
		c-1.7,0.9-3.4-0.9-3.4-2.5V67.2c0-1.7,0-4.7,1.8-7.4l28.9-41.5h-25.2C275,18.3,273.8,17.2,273.8,15.6z"/>
	<path d="M98,82.8H83.4c-1.4-0.1-2.5-1.1-2.6-2.5l0-75.3c0-1.5,1.3-2.7,2.8-2.7l13.7,0c1.4,0.1,2.6,1.2,2.7,2.5v9.8h0.3
		c3.5-9.5,10.3-13.9,19.3-13.9c9.2,0,14.9,4.4,19,13.9c3.6-9.5,11.6-13.9,20.3-13.9c6.2,0,12.9,2.5,17,8.2
		c4.7,6.3,3.7,15.5,3.7,23.6l0,47.5c0,1.5-1.3,2.7-2.8,2.7h-14.6c-1.5-0.1-2.6-1.3-2.6-2.7l0-39.9c0-3.2,0.3-11.1-0.4-14.1
		c-1.1-5.1-4.4-6.5-8.6-6.5c-3.5,0-7.2,2.4-8.8,6.2c-1.5,3.8-1.4,10.1-1.4,14.4V80c0,1.5-1.3,2.7-2.8,2.7h-14.6
		c-1.5-0.1-2.6-1.3-2.6-2.7l0-39.9c0-8.4,1.4-20.7-9-20.7c-10.5,0-10.1,12-10.1,20.7l0,39.9C100.8,81.6,99.6,82.8,98,82.8z"/>
	<path d="M369,0.7c21.7,0,33.5,18.7,33.5,42.4c0,23-13,41.2-33.5,41.2c-21.4,0-33-18.7-33-42C336,18.9,347.7,0.7,369,0.7z
		 M369.1,16.1c-10.8,0-11.5,14.7-11.5,23.9c0,9.2-0.1,28.8,11.4,28.8c11.3,0,11.9-15.8,11.9-25.5c0-6.3-0.3-13.9-2.2-20
		C377,18.1,373.7,16.1,369.1,16.1z"/>
	<path d="M430.7,82.8h-14.6c-1.5-0.1-2.6-1.3-2.6-2.7l0-75.3c0.1-1.4,1.3-2.5,2.8-2.5l13.6,0c1.3,0.1,2.3,0.9,2.6,2.1v11.5h0.3
		c4.1-10.3,9.8-15.2,20-15.2c6.6,0,13,2.4,17.1,8.9c3.8,6,3.8,16.1,3.8,23.4v47.4c-0.2,1.3-1.4,2.4-2.8,2.4h-14.7
		c-1.3-0.1-2.4-1.1-2.6-2.4V39.5c0-8.2,1-20.3-9.2-20.3c-3.6,0-6.8,2.4-8.5,6c-2,4.6-2.3,9.2-2.3,14.2V80
		C433.5,81.6,432.3,82.8,430.7,82.8z"/>
	<g>
		<path d="M293.3,112c-28,20-66.9,30.7-101.3,30.7c-48.1,0-91-17.4-124.1-47.3c-3.1-2.8-1.1-6,2.7-3.8c36,20.8,79.1,33,124.3,33
			c30.5,0,62.9-6.1,93.7-19.2C295.4,102.6,298.2,108.6,293.3,112z"/>
		<path d="M305.3,98.5c-3.5-4.5-23.3-2.1-32.2-1.1c-2.7,0.3-3.1-2-0.7-3.7c15.8-11,41.6-7.8,44.6-4.2c3,3.7-0.8,29.6-15.6,42
			c-2.3,1.9-4.4,0.9-3.4-1.6C301.4,121.6,308.8,103,305.3,98.5z"/>
	</g>
	<path d="M490.3,70.5c1.7,0,3.1,0.6,4.2,1.7c1.2,1.2,1.7,2.6,1.7,4.2c0,1.6-0.6,3.1-1.7,4.2c-1.2,1.2-2.6,1.7-4.2,1.7
		c-1.7,0-3.1-0.6-4.2-1.7c-1.2-1.2-1.7-2.6-1.7-4.2c0-1.6,0.6-3,1.7-4.2C487.3,71.1,488.7,70.5,490.3,70.5z M497.2,76.4
		c0-1.9-0.7-3.5-2-4.8c-1.3-1.3-3-2-4.9-2c-1.9,0-3.5,0.7-4.8,2c-1.3,1.3-2,3-2,4.8c0,1.9,0.7,3.5,2,4.9c1.3,1.4,3,2,4.9,2
		c1.9,0,3.5-0.7,4.9-2C496.5,79.9,497.2,78.3,497.2,76.4z M492.1,74.9c0,0.6-0.3,1-0.8,1.2c-0.3,0.1-0.7,0.2-1.3,0.2h-1.2v-2.7h1.1
		c0.8,0,1.3,0.1,1.6,0.3C491.9,74,492.1,74.4,492.1,74.9z M487.5,72.6v7.5h1.3v-3h1.1c0.7,0,1.2,0.1,1.5,0.2
		c0.5,0.3,0.7,0.9,0.7,1.7v0.6l0,0.2c0,0,0,0.1,0,0.1c0,0,0,0.1,0,0.1h1.2l0-0.1c0-0.1-0.1-0.2-0.1-0.4c0-0.2,0-0.4,0-0.6v-0.5
		c0-0.4-0.1-0.8-0.4-1.2c-0.3-0.4-0.7-0.6-1.3-0.7c0.5-0.1,0.8-0.2,1.1-0.4c0.5-0.3,0.7-0.8,0.7-1.5c0-0.9-0.4-1.6-1.2-1.9
		c-0.4-0.2-1.1-0.3-2.1-0.3L487.5,72.6L487.5,72.6z"/>
	<path d="M250.1,82.6c-1,0.9-2.4,0.9-3.5,0.3c-4.9-4.1-5.7-5.9-8.4-9.8c-8,8.2-13.8,10.7-24.2,10.7c-12.3,0-21.9-7.6-21.9-22.9
		c0-11.9,6.4-20,15.6-24c7.9-3.5,19.1-4.1,27.5-5.1V30c0-3.5,0.3-7.6-1.8-10.6c-1.8-2.7-5.2-3.8-8.2-3.8c-5.6,0-10.6,2.9-11.8,8.8
		c-0.2,1.3-1.2,2.6-2.6,2.7l-14.2-1.5c-1.2-0.3-2.5-1.2-2.2-3.1C197.9,5.2,213.5,0,227.4,0c7.1,0,16.5,1.9,22.1,7.3
		c7.1,6.7,6.5,15.5,6.5,25.2v22.8c0,6.9,2.8,9.9,5.5,13.6c0.9,1.3,1.2,2.9,0,3.9C258.4,75.4,253.1,80,250.1,82.6L250.1,82.6z
		 M235.4,46.7v-3.2c-10.6,0-21.8,2.3-21.8,14.7c0,6.3,3.3,10.6,8.9,10.6c4.1,0,7.8-2.5,10.1-6.6C235.6,57.2,235.4,52.4,235.4,46.7"
		/>
</g>
</svg>
