<?xml version="1.0" encoding="utf-8"?>
<!-- Generator: Adobe Illustrator 19.1.0, SVG Export Plug-In . SVG Version: 6.00 Build 0)  -->
<svg version="1.1" id="Tradera_x5F_Logo" xmlns="http://www.w3.org/2000/svg" xmlns:xlink="http://www.w3.org/1999/xlink" x="0px"
	 y="0px" viewBox="0 0 489 96.4" style="enable-background:new 0 0 489 96.4;" xml:space="preserve">
<style type="text/css">
	.st0{fill:#FFF;}
</style>
<path class="st0" d="M34.6,0c2,0,1.5,2.3,1.5,2.3L32,32.4c0,0,15.4,0,17,0s1.6,1.8,1.6,1.8s-1.4,11.3-1.7,13.4c-0.3,2.1-2,2.2-2,2.2h-17
	c0,0-0.5,3.3-2.2,16.2c-1.7,12.9,9.9,11.9,9.9,11.9c13.5,0.2,21-15.6,21-15.6c1.2-2.3,1.4-4.7,1.4-4.7s2.6-21.4,2.9-23.9
	c0.3-2.5,2.1-2.4,2.1-2.4s13.4,0,15.3,0c1.8,0,1.6,1.8,1.6,1.8l-0.9,7.4l3.4-3.9c5.3-5.8,14.1-8.9,21.1-4.4c7,4.5,3.7,13.8,3.7,13.8
	c2.5,3,6.7,1.5,12.4-4.2c5.7-5.7,13.9-11.7,26.6-12.3c12.7-0.5,19.4,9.2,19.4,9.2s0.5-3.9,0.7-5.5c0.2-1.6,2-1.8,2-1.8
	s13.4,0,15.3,0c1.8,0,1.5,2.2,1.5,2.2s-4.2,34.6-4.7,39.1c-0.5,4.5,2.3,5.8,2.3,5.8c4.6,2.6,10.7-1.8,10.7-1.8s-2.5-12.6,1.4-23
	c3.9-10.3,13.3-22.2,30.1-23.6s22.5,9.1,22.5,9.1s4.3-35.8,4.5-37.4c0.2-1.6,2-1.8,2-1.8s13.6,0,15.3,0c1.7,0,1.6,1.8,1.6,1.8
	s-8.2,67.8-8.6,71.1c-0.4,3.3,1.7,5.2,1.7,5.2c4.7,3.6,11.8-1.5,11.8-1.5c-4.9-15.2,3.5-28.3,3.5-28.3
	c11.5-19.1,32.8-18.6,32.8-18.6c17.8,0,25.9,13.5,25.9,13.5c1.6,2.2,0.9,3.6,0.1,4.3c-0.3,0.3-36.7,29.9-36.7,29.9
	c27.9,10.3,48.1-25.1,48.8-27.4c0.7-2.3,2-14.6,2.2-16.6c0.2-2,2-2.1,2-2.1s13.4,0,15.3,0c1.9,0,1.5,2,1.5,2l-0.9,7.1
	c3.9-6,14.4-13.4,23.1-9.2c8.6,4.2,5.3,14.3,5.3,14.3c3.4,4.6,9.8-1.6,9.8-1.6c30.5-29.2,48.4-5.4,48.4-5.4s0.4-3.4,0.7-5.5
	c0.3-2.1,2.6-1.8,2.6-1.8s12.1,0,14.4,0s1.8,2.2,1.8,2.2s-4.8,39.5-4.9,40.6c-0.1,1.1,1,4.3,3.4,4.7c2.4,0.4,5.4-1.2,7-5.1
	c1.8-4.1,3.9-0.3,3.9-0.3c4.5,9.1-2.3,21.8-15.6,22.8c-13.3,1-17-11.5-17-11.5c-12.4,16.6-31.4,10.3-31.4,10.3
	C396.8,85.9,406.6,56,406.6,56c-5.4,6.4-19,13.4-25.4,7.2c-6.1-5.9-1.8-12.9-1.8-12.9c-9.5,2.8-10.4,15-10.4,15s-2.7,22.4-3.1,26.2
	c-0.4,3.7-2.9,3.2-2.9,3.2s-11.5,0-14.1,0c-2.6,0-1.8-3.2-1.8-3.2l1.8-15.2c-3.6,5.9-15.6,19.9-38.5,19.9c-19.6,0-26.9-9.8-26.9-9.8
	s-10.7,9.8-23.3,9.8c-12.6,0-14.8-11.7-14.8-11.7s-9.5,11.7-24.2,11.7s-20.7-9.1-20.7-9.1s-10.4,9.1-21.9,9
	c-11.5-0.1-14.8-11.3-14.8-11.3c-9.8,13.3-25.1,11.3-25.1,11.3C103.7,92.9,114.9,56,114.9,56c-4.1,5.6-17.1,12.9-24.5,7.9
	c-7.4-5-2.9-13.3-2.9-13.3c-3.2,0.6-7.6,6.1-8.6,9.4c-1,3.3-4.3,32.1-4.3,32.1c-0.3,2.8-2.1,2.6-2.1,2.6s-12.1,0-14.8,0
	s-2-2.4-2-2.4L57,81.6c0,0-7.4,14.3-30.2,14.3c-22.8,0-19.3-23-19.3-23l3-23.1c0,0-6.6,0-8.6,0c-2.1,0-1.8-2-1.8-2
	s1.6-12.1,1.8-13.8C2,32.4,4,32.4,4,32.4h8.7c0,0,4-28.7,4.3-30.7c0.3-2,2.4-1.8,2.4-1.8h7.5C26.8,0,32.6,0,34.6,0z M158.7,47.8
	c-4.6-3.6-19.2-4.3-24.8,11.2c-5.6,15.4,8.5,24,17.8,20.8c9.3-3.2,11.7-10.2,11.7-10.2l1.6-13C164.3,53.7,162.6,50.9,158.7,47.8z
	 M240.4,47.8c-4.6-3.6-19.2-4.3-24.8,11.2c-5.6,15.4,8.5,24,17.8,20.8c9.3-3.2,11.7-10.2,11.7-10.2l1.6-13
	C246,53.7,244.4,50.9,240.4,47.8z M450,47.8c-4.6-3.6-19.2-4.3-24.8,11.2c-5.6,15.4,8.5,24,17.8,20.8c9.3-3.2,11.7-10.2,11.7-10.2
	l1.6-13C455.6,53.7,454,50.9,450,47.8z M294.8,68l23.5-19.8c0,0-7.2-6.4-17.2,0.9C291.1,56.5,294.8,68,294.8,68z"/>
</svg>
