<?xml version="1.0" encoding="utf-8"?>
<!-- Generator: Adobe Illustrator 19.1.0, SVG Export Plug-In . SVG Version: 6.00 Build 0)  -->
<svg version="1.1" id="Lager_1" xmlns="http://www.w3.org/2000/svg" xmlns:xlink="http://www.w3.org/1999/xlink" x="0px" y="0px"
	 viewBox="0 0 401.1 78.1" style="enable-background:new 0 0 401.1 78.1;" xml:space="preserve">
<style type="text/css">
	.st0{fill:#FFF;}
</style>
<g>
	<path class="st0" d="M47.3,42.7c0,3.6-0.9,6.8-2.8,9.7c-1.9,2.9-4.6,5.1-8.1,6.7c-3.6,1.6-7.8,2.4-12.7,2.4
		c-5.9,0-10.7-1.1-14.5-3.3c-2.7-1.6-4.9-3.7-6.6-6.4C0.8,49.2,0,46.6,0,44.1c0-1.5,0.5-2.7,1.5-3.8c1-1,2.3-1.6,3.9-1.6
		c1.3,0,2.3,0.4,3.2,1.2c0.9,0.8,1.6,2,2.3,3.6c0.8,1.9,1.6,3.5,2.5,4.8c0.9,1.3,2.1,2.3,3.7,3.1c1.6,0.8,3.7,1.2,6.3,1.2
		c3.6,0,6.5-0.8,8.7-2.5c2.2-1.7,3.4-3.7,3.4-6.2c0-2-0.6-3.6-1.8-4.8c-1.2-1.2-2.8-2.2-4.7-2.8c-1.9-0.7-4.5-1.3-7.7-2.1
		c-4.3-1-7.9-2.2-10.7-3.5c-2.9-1.3-5.2-3.2-6.9-5.5C2,23,1.1,20.1,1.1,16.7c0-3.3,0.9-6.2,2.7-8.7c1.8-2.5,4.4-4.5,7.8-5.9
		C15,0.7,18.9,0,23.5,0c3.7,0,6.8,0.5,9.5,1.4c2.7,0.9,4.9,2.1,6.6,3.6c1.8,1.5,3,3.1,3.9,4.7c0.8,1.7,1.2,3.3,1.2,4.8
		c0,1.4-0.5,2.7-1.5,3.9c-1,1.2-2.3,1.7-3.8,1.7c-1.4,0-2.4-0.3-3.1-1c-0.7-0.7-1.5-1.8-2.3-3.4c-1.1-2.2-2.4-4-3.9-5.3
		c-1.5-1.3-4-1.9-7.3-1.9c-3.1,0-5.6,0.7-7.5,2.1c-1.9,1.4-2.9,3-2.9,4.9c0,1.2,0.3,2.2,1,3.1c0.7,0.9,1.5,1.6,2.7,2.2
		c1.1,0.6,2.3,1.1,3.5,1.5c1.2,0.4,3.1,0.9,5.8,1.5c3.4,0.8,6.4,1.7,9.1,2.6c2.7,0.9,5,2.1,6.9,3.5c1.9,1.4,3.4,3.1,4.5,5.1
		C46.8,37.2,47.3,39.7,47.3,42.7"/>
	<path class="st0" d="M87.8,41.8H66.1c0,2.5,0.5,4.7,1.5,6.7c1,1.9,2.3,3.4,3.9,4.3c1.6,1,3.4,1.5,5.4,1.5c1.3,0,2.5-0.2,3.6-0.5
		c1.1-0.3,2.2-0.8,3.2-1.5c1-0.7,2-1.4,2.8-2.1c0.9-0.8,2-1.8,3.4-3.1c0.6-0.5,1.4-0.7,2.4-0.7c1.1,0,2.1,0.3,2.8,0.9
		c0.7,0.6,1.1,1.5,1.1,2.6c0,1-0.4,2.2-1.2,3.5c-0.8,1.3-2,2.6-3.6,3.9c-1.6,1.2-3.6,2.3-6,3.1c-2.4,0.8-5.2,1.2-8.3,1.2
		c-7.1,0-12.7-2-16.6-6.1c-4-4.1-5.9-9.6-5.9-16.5c0-3.3,0.5-6.3,1.5-9.1c1-2.8,2.4-5.2,4.3-7.2c1.9-2,4.2-3.5,6.9-4.6
		c2.7-1.1,5.8-1.6,9.1-1.6c4.3,0,8,0.9,11.2,2.7c3.1,1.8,5.4,4.2,7,7.1c1.5,2.9,2.3,5.9,2.3,8.9c0,2.8-0.8,4.6-2.4,5.4
		C92.9,41.4,90.6,41.8,87.8,41.8 M66.1,35.5h20.1c-0.3-3.8-1.3-6.6-3.1-8.5c-1.8-1.9-4.1-2.8-7-2.8c-2.8,0-5,1-6.8,2.9
		C67.5,28.9,66.4,31.7,66.1,35.5"/>
	<path class="st0" d="M106.2,54.9V6.8c0-2.2,0.5-3.9,1.5-5c1-1.1,2.3-1.7,4-1.7c1.7,0,3,0.6,4.1,1.7c1,1.1,1.5,2.8,1.5,5.1v48.1
		c0,2.2-0.5,3.9-1.6,5.1c-1,1.1-2.4,1.7-4,1.7c-1.6,0-2.9-0.6-4-1.7C106.7,58.7,106.2,57,106.2,54.9"/>
	<path class="st0" d="M128.8,54.9V6.8c0-2.2,0.5-3.9,1.5-5c1-1.1,2.3-1.7,4-1.7c1.7,0,3,0.6,4.1,1.7c1,1.1,1.5,2.8,1.5,5.1v48.1
		c0,2.2-0.5,3.9-1.6,5.1c-1,1.1-2.4,1.7-4,1.7c-1.6,0-2.9-0.6-4-1.7C129.3,58.7,128.8,57,128.8,54.9"/>
	<path class="st0" d="M192.8,39c0,3.3-0.5,6.4-1.5,9.1c-1,2.8-2.5,5.2-4.5,7.2c-1.9,2-4.3,3.5-7,4.6c-2.7,1.1-5.8,1.6-9.1,1.6
		c-3.4,0-6.4-0.5-9.1-1.6c-2.7-1.1-5-2.6-7-4.7c-2-2-3.5-4.4-4.5-7.1c-1-2.7-1.5-5.8-1.5-9.1c0-3.4,0.5-6.4,1.5-9.2
		c1-2.8,2.5-5.2,4.4-7.2c1.9-2,4.3-3.5,7-4.6c2.7-1.1,5.8-1.6,9.1-1.6c3.4,0,6.4,0.5,9.1,1.6c2.7,1.1,5.1,2.6,7,4.6
		c1.9,2,3.4,4.4,4.4,7.2C192.3,32.7,192.8,35.7,192.8,39 M181.7,39c0-4.5-1-8-3-10.6c-2-2.5-4.7-3.8-8-3.8c-2.2,0-4.1,0.6-5.7,1.7
		c-1.7,1.1-2.9,2.8-3.8,5c-0.9,2.2-1.3,4.8-1.3,7.7c0,2.9,0.4,5.4,1.3,7.6c0.9,2.2,2.1,3.8,3.8,5c1.6,1.2,3.6,1.7,5.8,1.7
		c3.4,0,6-1.3,8-3.8C180.7,47,181.7,43.5,181.7,39"/>
	<g>
		<rect x="155" y="33.9" transform="matrix(0.8344 0.5511 -0.5511 0.8344 46.1609 -84.6918)" class="st0" width="18" height="1.2"/>
		
			<rect x="166.5" y="30.9" transform="matrix(-0.6297 0.7768 -0.7768 -0.6297 313.2747 -86.2891)" class="st0" width="21.5" height="1.2"/>
		<path class="st0" d="M172.9,39c0,1.1-0.9,2-2,2c-1.1,0-2-0.9-2-2c0-1.1,0.9-2,2-2C172.1,37.1,172.9,38,172.9,39"/>
	</g>
</g>
<g>
	<path class="st0" d="M247.9,42.7c0,3.6-0.9,6.8-2.8,9.7c-1.9,2.9-4.6,5.1-8.2,6.7s-7.8,2.4-12.7,2.4c-5.9,0-10.7-1.1-14.6-3.3
		c-2.7-1.6-4.9-3.7-6.6-6.4c-1.7-2.7-2.5-5.3-2.5-7.8c0-1.5,0.5-2.7,1.5-3.8c1-1,2.3-1.6,3.9-1.6c1.3,0,2.4,0.4,3.2,1.2
		c0.9,0.8,1.6,2,2.3,3.6c0.8,1.9,1.6,3.5,2.5,4.8c0.9,1.3,2.1,2.3,3.7,3.2c1.6,0.8,3.7,1.2,6.3,1.2c3.6,0,6.5-0.8,8.7-2.5
		c2.2-1.7,3.4-3.7,3.4-6.2c0-2-0.6-3.6-1.8-4.8c-1.2-1.2-2.8-2.2-4.7-2.8c-1.9-0.7-4.5-1.3-7.7-2.1c-4.3-1-7.9-2.2-10.8-3.5
		c-2.9-1.3-5.2-3.2-6.9-5.5c-1.7-2.3-2.5-5.2-2.5-8.6c0-3.3,0.9-6.2,2.7-8.7c1.8-2.5,4.4-4.5,7.8-5.9c3.4-1.4,7.4-2.1,12-2.1
		c3.7,0,6.8,0.5,9.5,1.4c2.7,0.9,4.9,2.1,6.6,3.6c1.8,1.5,3,3.1,3.9,4.7c0.8,1.7,1.2,3.3,1.2,4.8c0,1.4-0.5,2.7-1.5,3.9
		c-1,1.2-2.3,1.7-3.8,1.7c-1.4,0-2.4-0.3-3.2-1c-0.7-0.7-1.5-1.8-2.3-3.4c-1.1-2.2-2.4-4-3.9-5.3c-1.5-1.3-4-1.9-7.3-1.9
		c-3.1,0-5.6,0.7-7.5,2.1c-1.9,1.4-2.9,3-2.9,4.9c0,1.2,0.3,2.2,1,3.1c0.7,0.9,1.5,1.6,2.7,2.2c1.1,0.6,2.3,1.1,3.5,1.5
		c1.2,0.4,3.1,0.9,5.8,1.5c3.4,0.8,6.4,1.7,9.1,2.6c2.7,0.9,5,2.1,7,3.5c1.9,1.4,3.4,3.1,4.5,5.1C247.4,37.2,247.9,39.7,247.9,42.7z
		"/>
	<path class="st0" d="M268.2,6.7v16.5c1.4-1.6,2.8-2.9,4.1-3.9c1.3-0.9,2.8-1.7,4.5-2.1c1.6-0.5,3.4-0.7,5.2-0.7
		c2.8,0,5.3,0.6,7.5,1.8c2.2,1.2,3.9,2.9,5.1,5.2c0.8,1.3,1.3,2.8,1.6,4.5c0.3,1.6,0.4,3.5,0.4,5.7v21.3c0,2.2-0.5,3.9-1.5,5
		c-1,1.1-2.4,1.7-4,1.7c-3.7,0-5.5-2.2-5.5-6.7V36.1c0-3.6-0.5-6.3-1.6-8.2c-1.1-1.9-3.1-2.9-6-2.9c-2,0-3.8,0.6-5.3,1.7
		c-1.6,1.1-2.8,2.7-3.6,4.6c-0.6,1.7-0.9,4.6-0.9,8.8v14.7c0,2.2-0.5,3.9-1.5,5c-1,1.2-2.4,1.7-4.1,1.7c-3.7,0-5.5-2.2-5.5-6.7V6.7
		c0-2.2,0.5-3.9,1.4-5.1c1-1.1,2.3-1.7,4-1.7c1.8,0,3.1,0.6,4.1,1.7C267.7,2.8,268.2,4.5,268.2,6.7z"/>
	<path class="st0" d="M349.2,39.1c0,3.3-0.5,6.4-1.5,9.1c-1,2.8-2.5,5.2-4.5,7.2c-2,2-4.3,3.5-7,4.6c-2.7,1.1-5.8,1.6-9.1,1.6
		c-3.4,0-6.4-0.5-9.1-1.6c-2.7-1.1-5-2.6-7-4.7c-2-2-3.5-4.4-4.5-7.2c-1-2.8-1.5-5.8-1.5-9.1c0-3.4,0.5-6.4,1.5-9.2
		c1-2.8,2.5-5.2,4.4-7.2c1.9-2,4.3-3.5,7-4.6c2.7-1.1,5.8-1.6,9.1-1.6c3.4,0,6.4,0.5,9.1,1.6c2.7,1.1,5.1,2.6,7,4.6
		c2,2,3.4,4.4,4.5,7.2C348.7,32.7,349.2,35.7,349.2,39.1z M338.1,39.1c0-4.5-1-8-3-10.6c-2-2.5-4.7-3.8-8-3.8
		c-2.2,0-4.1,0.6-5.7,1.7c-1.7,1.1-2.9,2.8-3.8,5c-0.9,2.2-1.3,4.8-1.3,7.7c0,2.9,0.4,5.4,1.3,7.6c0.9,2.2,2.1,3.8,3.8,5
		c1.6,1.2,3.6,1.7,5.8,1.7c3.4,0,6-1.3,8-3.8C337.1,47,338.1,43.5,338.1,39.1z"/>
	<path class="st0" d="M368.2,22.7v1.3c2.1-2.6,4.3-4.5,6.5-5.7c2.2-1.2,4.8-1.8,7.6-1.8c3.4,0,6.6,0.9,9.4,2.6
		c2.9,1.8,5.1,4.3,6.8,7.7c1.7,3.4,2.5,7.4,2.5,12c0,3.4-0.5,6.6-1.4,9.4c-1,2.9-2.3,5.3-4,7.2c-1.7,1.9-3.7,3.4-6,4.5
		c-2.3,1-4.8,1.6-7.4,1.6c-3.2,0-5.8-0.6-8-1.9c-2.2-1.3-4.2-3.1-6.2-5.6v16.7c0,4.9-1.8,7.3-5.3,7.3c-2.1,0-3.5-0.6-4.1-1.9
		c-0.7-1.3-1-3.1-1-5.5V22.8c0-2.1,0.5-3.7,1.4-4.7c0.9-1,2.2-1.6,3.8-1.6c1.6,0,2.9,0.5,3.8,1.6C367.7,19.2,368.2,20.7,368.2,22.7z
		 M389.9,38.9c0-2.9-0.4-5.4-1.3-7.5c-0.9-2.1-2.1-3.7-3.7-4.8c-1.6-1.1-3.3-1.7-5.3-1.7c-3.1,0-5.6,1.2-7.7,3.6
		c-2.1,2.4-3.2,6-3.2,10.7c0,4.4,1,7.9,3.1,10.3c2.1,2.5,4.7,3.7,7.8,3.7c1.8,0,3.6-0.5,5.1-1.6c1.6-1.1,2.8-2.7,3.8-4.8
		C389.5,44.5,389.9,41.9,389.9,38.9z"/>
</g>
</svg>
