<?xml version="1.0" encoding="utf-8"?>
<!-- Generator: Adobe Illustrator 19.1.0, SVG Export Plug-In . SVG Version: 6.00 Build 0)  -->
<svg version="1.1" id="Lager_1" xmlns="http://www.w3.org/2000/svg" xmlns:xlink="http://www.w3.org/1999/xlink" x="0px" y="0px"
	 viewBox="-79 341.1 399.5 87.7" style="enable-background:new -79 341.1 399.5 87.7;" xml:space="preserve">
<style type="text/css">
	.st0{fill:#FFF;}
</style>
<g>
	<path class="st0" d="M320.5,383.5c-0.1,10.2-2.5,19.6-8.8,27.9c-0.7,1-0.7,1.5,0.2,2.3c1.2,1,2.3,2,3.3,3.1
		c1.8,1.8,1.8,3.5,0.1,5.3c-1.7,1.8-3.4,3.5-5.1,5.2c-2,1.9-3.5,2-5.5,0.2c-2-1.7-3.6-4.4-5.8-5c-2.1-0.5-4.7,1.3-7.1,1.9
		c-25.3,5.8-46.8-8.4-49.7-35.3c-0.9-7.9,0-15.6,2.8-23.1c6.3-17.1,23-26.8,41.3-24.6c17.1,2,31,14.4,33.9,34.8
		C320.3,378.6,320.6,381,320.5,383.5z M285.7,409.9c-4.5-5.4-4.5-5.4-0.1-10.1c5.6-5.7,5.6-5.8,11.3-0.3c1.6,1.6,2.4,1.5,3.3-0.5
		c4.4-9.8,4.7-19.8,0.6-29.7c-3.6-8.7-10.4-13.1-20-13c-9.5,0.1-15.9,4.7-19.6,13.2c-1.9,4.3-2.6,8.9-2.6,13.5
		c0,7.1,1.3,13.9,5.8,19.7C269.3,409.2,278.6,412.3,285.7,409.9z"/>
	<path class="st0" d="M78.3,373.1c0,15.3,0,30.5,0,45.8c0,4.2-0.8,5.1-5,5.1c-2.4,0-4.9,0.1-7.3,0c-2.7-0.1-3.9-1.2-3.9-3.9
		c0-24.4,0-48.7,0-73.1c0-2.5,1.2-3.7,3.7-3.8c2.9-0.1,5.9,0.1,8.8-0.1c2.4-0.1,3.9,0.8,5.2,2.8c10.1,15.5,20.3,31,30.5,46.5
		c0.5,0.8,1,1.5,1.6,2.4c0.8-0.9,0.5-1.9,0.5-2.7c0-14.7,0-29.3,0-44c0-4.1,0.8-4.9,4.8-4.9c2.4,0,4.7,0,7.1,0
		c3.1,0,4.3,1.1,4.3,4.3c0,5.6,0,11.3,0,16.9c0,18.1,0,36.2,0,54.4c0,4.3-0.9,5.2-5.2,5.2c-2.5,0-5.1-0.1-7.6,0
		c-2.5,0.1-4-0.8-5.4-2.9c-10-15.4-20.2-30.7-30.3-46c-0.5-0.7-1-1.5-1.5-2.2C78.6,372.9,78.4,373,78.3,373.1z"/>
	<path class="st0" d="M139.2,383.5c0-11.8,0-23.6,0-35.4c0-4.1,0.9-5,4.8-5c9.4,0,18.9,0,28.3,0.1c4.3,0.1,8.5,0.9,12.6,2.3
		c13,4.4,20.1,13.7,22.1,26.9c1.4,8.9,1,17.8-1.5,26.5c-4.1,14.6-15.8,23.7-31.6,24.7c-10.3,0.6-20.5,0.2-30.8,0.2c-3,0-4-1.2-4-4.5
		C139.2,407.4,139.2,395.4,139.2,383.5z M156,383.4c0,7.8,0,15.5,0,23.3c0,1.8,0.5,2.3,2.3,2.3c3.8-0.1,7.6,0,11.4-0.1
		c11.3-0.2,18.1-5.7,20.5-16.8c1.5-6.9,1.3-13.7-0.5-20.5c-2.1-7.9-7.5-12.4-15.6-13.2c-5.2-0.5-10.4-0.2-15.7-0.4
		c-1.9-0.1-2.4,0.6-2.4,2.4C156,368.1,156,375.8,156,383.4z"/>
	<path class="st0" d="M-79,383.5c0-11.8,0-23.6,0-35.4c0-4.1,0.9-5,4.8-5c15.5,0,31,0,46.5,0c3.8,0,4.7,1,4.8,4.8c0,1.9,0,3.9,0,5.8
		c0,3.1-1.1,4.3-4.3,4.3c-10.7,0-21.4,0.1-32.1-0.1c-2.5,0-3.2,0.6-3,3.1c0.2,3.9,0.2,7.8,0,11.6c-0.1,2,0.6,2.4,2.4,2.4
		c9.1-0.1,18.2,0,27.3,0c3.9,0,4.7,0.8,4.7,4.8c0,2,0,4,0,6.1c0,3-1,4.1-4.1,4.1c-9.1,0-18.2,0.1-27.3,0c-2.5,0-3.1,0.6-3.1,3.1
		c0.2,8.8,0.1,17.5,0.1,26.3c0,3.7-1,4.7-4.6,4.7c-2.5,0-5.1,0-7.6,0c-3.5,0-4.5-1.1-4.5-4.5C-79,407.4-79,395.4-79,383.5z"/>
	<path class="st0" d="M19.9,375.3c0.6-0.9,1.1-1.7,1.6-2.5c5.6-9,11.2-18,16.8-27c1.1-1.8,2.5-2.8,4.7-2.7c3.1,0.1,6.2,0.1,9.3,0
		c1.6,0,3.1,0.2,3.9,1.8c0.8,1.6,0.2,2.9-0.7,4.2c-8.7,13.3-17.4,26.6-26.2,39.9c-1,1.5-1.5,3.1-1.5,4.9c0.1,8.4,0,16.8,0,25.3
		c0,3.7-0.9,4.6-4.6,4.7c-2.5,0-5.1,0-7.6,0c-3.5,0-4.5-1.1-4.6-4.6c0-8.6,0-17.2,0-25.8c0-1.7-0.4-3.1-1.4-4.5
		c-8.8-13.2-17.5-26.4-26.2-39.6c-0.9-1.4-1.9-2.8-1-4.6c1-1.8,2.7-1.8,4.4-1.8c3.1,0,6.2,0.1,9.3,0c2.2-0.1,3.6,0.8,4.7,2.6
		c5.7,9.1,11.5,18.1,17.2,27.1C18.7,373.5,19.2,374.3,19.9,375.3z"/>
	<path class="st0" d="M233.1,383.4c0,11.8,0,23.6,0,35.4c0,4.3-0.8,5.1-5.2,5.1c-2.4,0-4.7,0-7.1,0c-3.4,0-4.5-1.1-4.5-4.6
		c0-13.9,0-27.8,0-41.7c0-9.9,0-19.9,0-29.8c0-3.6,1-4.7,4.6-4.7c2.4,0,4.9,0,7.3,0c3.9,0,4.8,0.8,4.8,4.7
		C233.1,359.7,233.1,371.6,233.1,383.4z"/>
</g>
</svg>
