<?xml version="1.0" encoding="utf-8"?>
<!-- Generator: Adobe Illustrator 19.1.0, SVG Export Plug-In . SVG Version: 6.00 Build 0)  -->
<svg version="1.1" id="Lager_1" xmlns="http://www.w3.org/2000/svg" xmlns:xlink="http://www.w3.org/1999/xlink" x="0px" y="0px"
	 viewBox="-79 341.1 377.3 69.1" style="enable-background:new -79 341.1 377.3 69.1;" xml:space="preserve">
<style type="text/css">
	.st0{fill:#1D1D1B;}
</style>
<g>
	<path class="st0" d="M228,373.7c-0.1,7.8-1.9,15.1-6.8,21.4c-0.5,0.8-0.5,1.2,0.2,1.8c0.9,0.8,1.8,1.5,2.5,2.4
		c1.4,1.4,1.4,2.7,0.1,4.1c-1.3,1.4-2.6,2.7-3.9,4c-1.5,1.5-2.7,1.5-4.2,0.2c-1.5-1.3-2.8-3.4-4.5-3.8c-1.6-0.4-3.6,1-5.5,1.5
		c-19.4,4.5-36-6.5-38.2-27.1c-0.7-6.1,0-12,2.2-17.8c4.8-13.1,17.7-20.6,31.7-18.9c13.1,1.5,23.8,11.1,26.1,26.7
		C227.9,369.9,228.1,371.8,228,373.7z M201.3,394c-3.5-4.1-3.5-4.1-0.1-7.8c4.3-4.4,4.3-4.5,8.7-0.2c1.2,1.2,1.8,1.2,2.5-0.4
		c3.4-7.5,3.6-15.2,0.5-22.8c-2.8-6.7-8-10.1-15.4-10c-7.3,0.1-12.2,3.6-15.1,10.1c-1.5,3.3-2,6.8-2,10.4c0,5.5,1,10.7,4.5,15.1
		C188.7,393.4,195.8,395.8,201.3,394z"/>
	<path class="st0" d="M41.9,365.7c0,11.8,0,23.4,0,35.2c0,3.2-0.6,3.9-3.8,3.9c-1.8,0-3.8,0.1-5.6,0c-2.1-0.1-3-0.9-3-3
		c0-18.8,0-37.4,0-56.2c0-1.9,0.9-2.8,2.8-2.9c2.2-0.1,4.5,0.1,6.8-0.1c1.8-0.1,3,0.6,4,2.2c7.8,11.9,15.6,23.8,23.4,35.7
		c0.4,0.6,0.8,1.2,1.2,1.8c0.6-0.7,0.4-1.5,0.4-2.1c0-11.3,0-22.5,0-33.8c0-3.2,0.6-3.8,3.7-3.8c1.8,0,3.6,0,5.5,0
		c2.4,0,3.3,0.8,3.3,3.3c0,4.3,0,8.7,0,13c0,13.9,0,27.8,0,41.8c0,3.3-0.7,4-4,4c-1.9,0-3.9-0.1-5.8,0c-1.9,0.1-3.1-0.6-4.1-2.2
		C58.9,390.7,51,379,43.3,367.2c-0.4-0.5-0.8-1.2-1.2-1.7C42.1,365.5,42,365.6,41.9,365.7z"/>
	<path class="st0" d="M88.7,373.7c0-9.1,0-18.1,0-27.2c0-3.2,0.7-3.8,3.7-3.8c7.2,0,14.5,0,21.7,0.1c3.3,0.1,6.5,0.7,9.7,1.8
		c10,3.4,15.4,10.5,17,20.7c1.1,6.8,0.8,13.7-1.2,20.4c-3.2,11.2-12.1,18.2-24.3,19c-7.9,0.5-15.8,0.2-23.7,0.2
		c-2.3,0-3.1-0.9-3.1-3.5C88.7,392,88.7,382.8,88.7,373.7z M101.6,373.6c0,6,0,11.9,0,17.9c0,1.4,0.4,1.8,1.8,1.8
		c2.9-0.1,5.8,0,8.8-0.1c8.7-0.2,13.9-4.4,15.8-12.9c1.2-5.3,1-10.5-0.4-15.8c-1.6-6.1-5.8-9.5-12-10.1c-4-0.4-8-0.2-12.1-0.3
		c-1.5-0.1-1.8,0.5-1.8,1.8C101.6,361.8,101.6,367.8,101.6,373.6z"/>
	<path class="st0" d="M-79,373.7c0-9.1,0-18.1,0-27.2c0-3.2,0.7-3.8,3.7-3.8c11.9,0,23.8,0,35.7,0c2.9,0,3.6,0.8,3.7,3.7
		c0,1.5,0,3,0,4.5c0,2.4-0.8,3.3-3.3,3.3c-8.2,0-16.4,0.1-24.7-0.1c-1.9,0-2.5,0.5-2.3,2.4c0.2,3,0.2,6,0,8.9
		c-0.1,1.5,0.5,1.8,1.8,1.8c7-0.1,14,0,21,0c3,0,3.6,0.6,3.6,3.7c0,1.5,0,3.1,0,4.7c0,2.3-0.8,3.2-3.2,3.2c-7,0-14,0.1-21,0
		c-1.9,0-2.4,0.5-2.4,2.4c0.2,6.8,0.1,13.4,0.1,20.2c0,2.8-0.8,3.6-3.5,3.6c-1.9,0-3.9,0-5.8,0c-2.7,0-3.5-0.8-3.5-3.5
		C-79,392-79,382.8-79,373.7z"/>
	<path class="st0" d="M-3,367.4c0.5-0.7,0.8-1.3,1.2-1.9c4.3-6.9,8.6-13.8,12.9-20.7c0.8-1.4,1.9-2.2,3.6-2.1c2.4,0.1,4.8,0.1,7.1,0
		c1.2,0,2.4,0.2,3,1.4c0.6,1.2,0.2,2.2-0.5,3.2c-6.7,10.2-13.4,20.4-20.1,30.7c-0.8,1.2-1.2,2.4-1.2,3.8c0.1,6.5,0,12.9,0,19.4
		c0,2.8-0.7,3.5-3.5,3.6c-1.9,0-3.9,0-5.8,0c-2.7,0-3.5-0.8-3.5-3.5c0-6.6,0-13.2,0-19.8c0-1.3-0.3-2.4-1.1-3.5
		c-6.8-10.1-13.4-20.3-20.1-30.4c-0.7-1.1-1.5-2.2-0.8-3.5c0.8-1.4,2.1-1.4,3.4-1.4c2.4,0,4.8,0.1,7.1,0c1.7-0.1,2.8,0.6,3.6,2
		c4.4,7,8.8,13.9,13.2,20.8C-3.9,366-3.5,366.6-3,367.4z"/>
	<path class="st0" d="M160.8,373.6c0,9.1,0,18.1,0,27.2c0,3.3-0.6,3.9-4,3.9c-1.8,0-3.6,0-5.5,0c-2.6,0-3.5-0.8-3.5-3.5
		c0-10.7,0-21.4,0-32c0-7.6,0-15.3,0-22.9c0-2.8,0.8-3.6,3.5-3.6c1.8,0,3.8,0,5.6,0c3,0,3.7,0.6,3.7,3.6
		C160.8,355.4,160.8,364.5,160.8,373.6z"/>
</g>
<g>
	<path d="M229.6,405.6v-7.1h7.1v7.1H229.6z"/>
	<path d="M268.4,405.6h-6.6v-3.9c-1.1,1.5-2.4,2.7-3.9,3.4s-3,1.1-4.5,1.1c-3.1,0-5.7-1.2-7.9-3.7c-2.2-2.5-3.3-5.9-3.3-10.4
		c0-4.5,1.1-8,3.2-10.3c2.1-2.4,4.8-3.5,8.1-3.5c3,0,5.6,1.2,7.8,3.7v-13.3h7.1V405.6z M249.5,391.7c0,2.9,0.4,4.9,1.2,6.2
		c1.1,1.8,2.7,2.8,4.8,2.8c1.6,0,3-0.7,4.2-2.1c1.1-1.4,1.7-3.5,1.7-6.2c0-3.1-0.6-5.3-1.7-6.6c-1.1-1.4-2.5-2-4.3-2
		c-1.7,0-3.1,0.7-4.2,2C250.1,387,249.5,389,249.5,391.7z"/>
	<path d="M290.9,397.1l7,1.2c-0.9,2.6-2.3,4.6-4.3,5.9c-2,1.4-4.4,2-7.3,2c-4.6,0-8.1-1.5-10.3-4.6c-1.8-2.4-2.6-5.5-2.6-9.2
		c0-4.4,1.2-7.9,3.5-10.4c2.3-2.5,5.2-3.8,8.8-3.8c4,0,7.1,1.3,9.4,3.9c2.3,2.6,3.4,6.6,3.3,12.1h-17.7c0,2.1,0.6,3.7,1.7,4.9
		c1.1,1.2,2.4,1.8,4.1,1.8c1.1,0,2-0.3,2.8-0.9C289.9,399.4,290.5,398.5,290.9,397.1z M291.3,390c0-2-0.6-3.6-1.6-4.7
		s-2.2-1.6-3.7-1.6c-1.5,0-2.8,0.6-3.8,1.7c-1,1.1-1.5,2.7-1.5,4.6H291.3z"/>
</g>
</svg>
