<?xml version="1.0" standalone="no"?>
<!DOCTYPE svg PUBLIC "-//W3C//DTD SVG 20010904//EN"
 "http://www.w3.org/TR/2001/REC-SVG-20010904/DTD/svg10.dtd">
<svg version="1.0" xmlns="http://www.w3.org/2000/svg"
 width="827.000000pt" height="827.000000pt" viewBox="0 0 827.000000 827.000000"
 preserveAspectRatio="xMidYMid meet">
<metadata>
Created by potrace 1.11, written by Peter Selinger 2001-2013
</metadata>
<g transform="translate(0.000000,827.000000) scale(0.100000,-0.100000)"
fill="#000000" stroke="none">
<path d="M0 4135 l0 -4135 4135 0 4135 0 0 4135 0 4135 -4135 0 -4135 0 0
-4135z m5630 1889 l59 -46 -159 -197 c-87 -108 -398 -490 -690 -850 -369 -455
-529 -659 -525 -670 16 -40 22 -105 14 -148 -26 -142 -194 -226 -326 -162 -54
26 -107 87 -123 142 -10 36 -22 48 -84 88 -76 49 -1519 1000 -1524 1005 -5 3
77 124 84 124 6 0 146 -92 918 -603 l628 -417 44 39 c54 48 115 66 194 58 l59
-7 403 497 c222 274 414 512 428 530 48 62 535 662 538 663 2 0 30 -21 62 -46z"/>
</g>
</svg>
